<svg width="23" height="17" viewBox="0 0 23 17" fill="none" xmlns="http://www.w3.org/2000/svg">
<path d="M1.79447 17H21.7526C22.4387 17 23 16.3625 23 15.5833C23 14.8042 22.4387 14.1667 21.7526 14.1667H1.79447C1.10841 14.1667 0.547089 14.8042 0.547089 15.5833C0.547089 16.3625 1.10841 17 1.79447 17ZM1.79447 9.91667H21.7526C22.4387 9.91667 23 9.27917 23 8.5C23 7.72083 22.4387 7.08333 21.7526 7.08333H1.79447C1.10841 7.08333 0.547089 7.72083 0.547089 8.5C0.547089 9.27917 1.10841 9.91667 1.79447 9.91667ZM0.547089 1.41667C0.547089 2.19583 1.10841 2.83333 1.79447 2.83333H21.7526C22.4387 2.83333 23 2.19583 23 1.41667C23 0.6375 22.4387 0 21.7526 0H1.79447C1.10841 0 0.547089 0.6375 0.547089 1.41667Z" fill="white"/>
</svg>
