<svg width="18" height="18" viewBox="0 0 18 18" fill="none" xmlns="http://www.w3.org/2000/svg">
<g clip-path="url(#clip0_6_141)">
<path fill-rule="evenodd" clip-rule="evenodd" d="M9.89987 8.14275H12.5999V9.85704H9.89987V12.4285H8.09989V9.85704H5.39987V8.14275H8.09989V5.57132H9.89987V8.14275ZM8.99988 15.857C5.02998 15.857 1.79988 12.7808 1.79988 8.9999C1.79988 5.21904 5.02998 2.14275 8.99988 2.14275C12.9698 2.14275 16.1999 5.21904 16.1999 8.9999C16.1999 12.7808 12.9698 15.857 8.99988 15.857ZM8.99988 0.428467C4.02918 0.428467 -0.00012207 4.2659 -0.00012207 8.9999C-0.00012207 13.7339 4.02918 17.5713 8.99988 17.5713C13.9706 17.5713 17.9999 13.7339 17.9999 8.9999C17.9999 4.2659 13.9706 0.428467 8.99988 0.428467Z" fill="#777777"/>
</g>
<defs>
<clipPath id="clip0_6_141">
<rect width="18" height="18" fill="white"/>
</clipPath>
</defs>
</svg>
